Coordinates
version=1
nRows=21
nColumns=22
inDegrees=yes

Units are S.I. units (second, meters, Newtons, ...)
If the header above contains a line with 'inDegrees', this indicates whether rotational values are in degrees (yes) or radians (no).

endheader
time	pelvis_tilt	pelvis_list	pelvis_rotation	pelvis_tx	pelvis_ty	pelvis_tz	hip_flexion_r	hip_adduction_r	hip_rotation_r	knee_angle_r	ankle_angle_r	subtalar_angle_r	hip_flexion_l	hip_adduction_l	hip_rotation_l	knee_angle_l	ankle_angle_l	subtalar_angle_l	lumbar_extension	lumbar_bending	lumbar_rotation
      1.37000000	      2.10518277	      1.69679526	      7.57254552	     -0.55529124	      1.08517361	      1.14637107	     -0.73667176	     -1.55229590	     -9.43222267	    -16.35755672	     16.16699763	     -2.33662690	     -2.88401795	      3.06169360	      5.94588752	    -10.17615000	     12.35902528	     -2.74041326	     -2.59250881	     -2.72951187	     -4.93621540
      1.38000000	      2.05447505	      1.66034982	      7.33324533	     -0.55498631	      1.08503846	      1.14724092	     -0.63049219	     -1.49222384	     -9.19649308	    -16.42108430	     16.24758862	     -2.35396279	     -2.80867730	      3.00406339	      5.70654958	    -10.24956917	     12.46835783	     -2.58934911	     -2.55863504	     -2.72742000	     -4.95991401
      1.39000000	      2.00432994	      1.62791848	      7.10347382	     -0.55466833	      1.08490064	      1.14814380	     -0.52170613	     -1.43275763	     -8.96199808	    -16.49547440	     16.32586611	     -2.37286744	     -2.72870870	      2.94755505	      5.47337775	    -10.33571691	     12.57603136	     -2.43425076	     -2.53335393	     -2.73211804	     -4.98902915
      1.40000000	      1.95247246	      1.59892874	      6.88242772	     -0.55434721	      1.08475970	      1.14907192	     -0.40932932	     -1.37472234	     -8.73422747	    -16.57591907	     16.39248300	     -2.39407594	     -2.64461051	      2.89256924	      5.25174567	    -10.42677727	     12.67908190	     -2.27202140	     -2.51870138	     -2.74040630	     -5.02294961
      1.41000000	      1.90871887	      1.57087296	      6.67171819	     -0.55398770	      1.08462699	      1.15002943	     -0.31055394	     -1.31345875	     -8.51913914	    -16.65370655	     16.46010333	     -2.41397193	     -2.56810157	      2.83386045	      5.03257091	    -10.52328144	     12.78593670	     -2.12597688	     -2.51763686	     -2.75069267	     -5.06039397
      1.42000000	      1.85980342	      1.54535437	      6.47305059	     -0.55362481	      1.08449172	      1.15102042	     -0.21234543	     -1.24941459	     -8.29799137	    -16.72389773	     16.51596908	     -2.43851136	     -2.47629311	      2.77629608	      4.83055707	    -10.63972418	     12.87945270	     -1.95130961	     -2.52074990	     -2.76637389	     -5.10087868
      1.43000000	      1.83109452	      1.51649760	      6.28346281	     -0.55322101	      1.08437787	      1.15202639	     -0.14307561	     -1.17924441	     -8.11399547	    -16.78494450	     16.58304358	     -2.45442623	     -2.41256084	      2.70988397	      4.62341229	    -10.74519383	     12.99231280	     -1.84074476	     -2.55335221	     -2.77276616	     -5.15087615
      1.44000000	      1.79597519	      1.48520343	      6.09649012	     -0.55281385	      1.08425954	      1.15307636	     -0.07377720	     -1.10109027	     -7.90932069	    -16.83511519	     16.63864572	     -2.47395726	     -2.32977533	      2.63960373	      4.41847744	    -10.87489197	     13.09619313	     -1.70393966	     -2.58582307	     -2.77954437	     -5.18853976
      1.45000000	      1.76068084	      1.45223180	      5.92053618	     -0.55239564	      1.08414267	      1.15415136	     -0.01318858	     -1.01712462	     -7.71374955	    -16.87220154	     16.69078950	     -2.49570301	     -2.23985342	      2.56491732	      4.22326121	    -11.01814034	     13.20285223	     -1.56576704	     -2.62508512	     -2.78533449	     -5.22684108
      1.46000000	      1.72303841	      1.41508131	      5.74965581	     -0.55197056	      1.08402330	      1.15525712	      0.04057115	     -0.92471992	     -7.51614142	    -16.89374625	     16.73626282	     -2.52122702	     -2.13820050	      2.48395870	      4.03262397	    -11.17896507	     13.31271557	     -1.42113915	     -2.66854992	     -2.78720448	     -5.25648918
      1.47000000	      1.68439508	      1.37385783	      5.58960268	     -0.55153697	      1.08390289	      1.15638746	      0.08444876	     -0.82354909	     -7.32390679	    -16.89667552	     16.77672650	     -2.55030114	     -2.02725606	      2.39615464	      3.85210899	    -11.35529642	     13.42564578	     -1.27895279	     -2.71845979	     -2.78576661	     -5.27884678
      1.48000000	      1.64453750	      1.32802657	      5.43973056	     -0.55108418	      1.08378138	      1.15754096	      0.11586412	     -0.71273805	     -7.13405243	    -16.87817806	     16.81370222	     -2.58271432	     -1.90541925	      2.30153894	      3.68084439	    -11.55008431	     13.54169965	     -1.14080982	     -2.77216253	     -2.77990521	     -5.29533097
      1.49000000	      1.60149021	      1.27643524	      5.29952622	     -0.55061603	      1.08365421	      1.15872354	      0.13874928	     -0.59142186	     -6.94536938	    -16.84030258	     16.84654745	     -2.61799386	     -1.77053404	      2.19842964	      3.51896219	    -11.76239622	     13.66194849	     -1.00624677	     -2.82829976	     -2.76904263	     -5.30507372
      1.50000000	      1.53682071	      1.22477540	      5.16249694	     -0.55014318	      1.08349890	      1.15995489	      0.17992438	     -0.46587383	     -6.73606345	    -16.79546977	     16.85854589	     -2.67062665	     -1.60408164	      2.09472012	      3.37057732	    -11.99071071	     13.77918882	     -0.81655542	     -2.86547328	     -2.76339254	     -5.30994413
      1.51000000	      1.49408159	      1.15707138	      5.04780896	     -0.54965729	      1.08336307	      1.16119158	      0.18231460	     -0.32054999	     -6.57567620	    -16.72455951	     16.89950552	     -2.69813852	     -1.44238832	      1.96977177	      3.23598587	    -12.25071767	     13.91309582	     -0.72734051	     -2.93645604	     -2.73687193	     -5.29979265
      1.52000000	      1.43128386	      1.08259306	      4.93166460	     -0.54917748	      1.08320096	      1.16248794	      0.20228288	     -0.16357335	     -6.38804815	    -16.64584091	     16.92163891	     -2.73056724	     -1.24481514	      1.83706729	      3.10604955	    -12.53577087	     14.04434972	     -0.61573707	     -2.99092886	     -2.70663834	     -5.27837102
      1.53000000	      1.35706006	      1.00301746	      4.82448896	     -0.54870466	      1.08301761	      1.16382057	      0.23076777	      0.00120560	     -6.20536766	    -16.56152697	     16.94479053	     -2.76316911	     -1.01803880	      1.69828006	      2.98958811	    -12.85019479	     14.18061536	     -0.50260098	     -3.04064811	     -2.67255106	     -5.24819946
      1.54000000	      1.27532920	      0.91715236	      4.72405960	     -0.54823971	      1.08281525	      1.16519236	      0.26421053	      0.17542110	     -6.02154734	    -16.47233174	     16.96894547	     -2.79365460	     -0.76387885	      1.55162041	      2.88358644	    -13.19827985	     14.32137322	     -0.39502250	     -3.08949285	     -2.63170186	     -5.20998740
      1.55000000	      1.16208819	      0.83223492	      4.62396207	     -0.54780977	      1.08256013	      1.16660885	      0.33957040	      0.34989461	     -5.80983705	    -16.39910623	     16.97692474	     -2.83566653	     -0.45139339	      1.40828580	      2.78938803	    -13.58963954	     14.46039879	     -0.24571886	     -3.11332159	     -2.59398894	     -5.16730346
      1.56000000	      1.09932040	      0.73064591	      4.54427562	     -0.54732126	      1.08234841	      1.16803712	      0.34095652	      0.54759359	     -5.64852212	    -16.29504615	     17.02729617	     -2.85469806	     -0.17513943	      1.24034757	      2.70240551	    -14.01564936	     14.61834705	     -0.18938146	     -3.19507221	     -2.53293686	     -5.11303167
      1.57000000	      0.96275207	      0.63063829	      4.45595208	     -0.54691558	      1.08202010	      1.16951830	      0.43952548	      0.74253937	     -5.42594445	    -16.21927595	     17.04400774	     -2.90333139	      0.22145447	      1.08060784	      2.61461767	    -14.51242958	     14.76961541	     -0.03661986	     -3.20916200	     -2.47750527	     -5.05264152
